# xmcd
#
# Track frame offsets: 
#        150
#        4747
#        22337
#        39680
#        57672
#        74160
#        95400
#        120335
#        121170
#        141182
#        157347
#        179425
#        193287
#        213092
#        235457
#
# Disc length: 3449 seconds
#
# Revision: 0
# Processed by: cddbd v1.5.1PL2 Copyright (c) Steve Scherf et al.
# Submitted via: ExactAudioCopy v0.95b4
#
DISCID=e80d770f
DTITLE=Lil Mac - Cracks To Stacks
DYEAR=2000
DGENRE=Rap
TTITLE0=Intro
TTITLE1=Cracks to Stacks
TTITLE2=Bleed the Block
TTITLE3=Rise to Shine (feat. Danny Boy, Lady T)
TTITLE4=Parlay till Dawn (feat. Lil Ke Ke, Slim Thug)
TTITLE5=Too Much is Not Enough (feat. Salt Water Clique)
TTITLE6=Lord Take Me
TTITLE7=Intrlude
TTITLE8=One Hitter Quitter (feat. 7-won-3)
TTITLE9=Do My Thang (feat. Lil Flex)
TTITLE10=Ball Till I Fall (feat. Chad)
TTITLE11=Impeachment
TTITLE12=Get The Money (feat. T-Slaughter)
TTITLE13=Fool fo You
TTITLE14=Dead Homies (feat. Hawk)
EXTD=
EXTT0=
EXTT1=
EXTT2=
EXTT3=
EXTT4=
EXTT5=
EXTT6=
EXTT7=
EXTT8=
EXTT9=
EXTT10=
EXTT11=
EXTT12=
EXTT13=
EXTT14=
PLAYORDER=
